<svg width="17" height="17" viewBox="0 0 17 17" fill="none" xmlns="http://www.w3.org/2000/svg">
<path d="M7.64453 0.5H9.01953V8.75H7.64453V0.5ZM5.58203 0.972656V2.47656C4.35026 2.99219 3.34766 3.82292 2.57422 4.96875C1.82943 6.11458 1.45703 7.375 1.45703 8.75C1.45703 10.6406 2.13021 12.2591 3.47656 13.6055C4.82292 14.9518 6.44141 15.625 8.33203 15.625C10.2227 15.625 11.8411 14.9518 13.1875 13.6055C14.5339 12.2591 15.207 10.6406 15.207 8.75C15.207 7.375 14.8203 6.11458 14.0469 4.96875C13.3021 3.82292 12.3138 2.99219 11.082 2.47656V0.972656C12.7148 1.54557 14.0326 2.54818 15.0352 3.98047C16.0664 5.38411 16.582 6.97396 16.582 8.75C16.582 11.013 15.7656 12.9609 14.1328 14.5938C12.5286 16.1979 10.5951 17 8.33203 17C6.06901 17 4.12109 16.1979 2.48828 14.5938C0.884115 12.9609 0.0820312 11.013 0.0820312 8.75C0.0820312 6.97396 0.583333 5.38411 1.58594 3.98047C2.61719 2.54818 3.94922 1.54557 5.58203 0.972656Z" fill="#202224"/>
</svg>
