<svg width="20" height="20" viewBox="0 0 20 20" fill="none" xmlns="http://www.w3.org/2000/svg">
<path d="M18.0189 6.18V1C18.0189 0.734784 17.9133 0.48043 17.7253 0.292893C17.5373 0.105357 17.2823 0 17.0165 0C16.7507 0 16.4957 0.105357 16.3077 0.292893C16.1198 0.48043 16.0141 0.734784 16.0141 1V6.18C15.4336 6.3902 14.9321 6.77363 14.5776 7.27816C14.2232 7.7827 14.033 8.38388 14.033 9C14.033 9.61612 14.2232 10.2173 14.5776 10.7218C14.9321 11.2264 15.4336 11.6098 16.0141 11.82V19C16.0141 19.2652 16.1198 19.5196 16.3077 19.7071C16.4957 19.8946 16.7507 20 17.0165 20C17.2823 20 17.5373 19.8946 17.7253 19.7071C17.9133 19.5196 18.0189 19.2652 18.0189 19V11.82C18.5994 11.6098 19.1009 11.2264 19.4554 10.7218C19.8099 10.2173 20 9.61612 20 9C20 8.38388 19.8099 7.7827 19.4554 7.27816C19.1009 6.77363 18.5994 6.3902 18.0189 6.18ZM17.0165 10C16.8183 10 16.6245 9.94135 16.4596 9.83147C16.2948 9.72159 16.1663 9.56541 16.0904 9.38268C16.0146 9.19996 15.9947 8.99889 16.0334 8.80491C16.0721 8.61093 16.1675 8.43275 16.3077 8.29289C16.4479 8.15304 16.6265 8.0578 16.821 8.01921C17.0154 7.98063 17.2169 8.00043 17.4001 8.07612C17.5832 8.15181 17.7398 8.27998 17.8499 8.44443C17.9601 8.60888 18.0189 8.80222 18.0189 9C18.0189 9.26522 17.9133 9.51957 17.7253 9.70711C17.5373 9.89464 17.2823 10 17.0165 10ZM11.0024 12.18V1C11.0024 0.734784 10.8968 0.48043 10.7088 0.292893C10.5208 0.105357 10.2658 0 10 0C9.73416 0 9.4792 0.105357 9.29123 0.292893C9.10325 0.48043 8.99764 0.734784 8.99764 1V12.18C8.41712 12.3902 7.91556 12.7736 7.5611 13.2782C7.20665 13.7827 7.0165 14.3839 7.0165 15C7.0165 15.6161 7.20665 16.2173 7.5611 16.7218C7.91556 17.2264 8.41712 17.6098 8.99764 17.82V19C8.99764 19.2652 9.10325 19.5196 9.29123 19.7071C9.4792 19.8946 9.73416 20 10 20C10.2658 20 10.5208 19.8946 10.7088 19.7071C10.8968 19.5196 11.0024 19.2652 11.0024 19V17.82C11.5829 17.6098 12.0844 17.2264 12.4389 16.7218C12.7933 16.2173 12.9835 15.6161 12.9835 15C12.9835 14.3839 12.7933 13.7827 12.4389 13.2782C12.0844 12.7736 11.5829 12.3902 11.0024 12.18ZM10 16C9.80175 16 9.60796 15.9414 9.44312 15.8315C9.27828 15.7216 9.14981 15.5654 9.07394 15.3827C8.99808 15.2 8.97823 14.9989 9.0169 14.8049C9.05558 14.6109 9.15104 14.4327 9.29123 14.2929C9.43141 14.153 9.61001 14.0578 9.80445 14.0192C9.99889 13.9806 10.2004 14.0004 10.3836 14.0761C10.5667 14.1518 10.7233 14.28 10.8334 14.4444C10.9436 14.6089 11.0024 14.8022 11.0024 15C11.0024 15.2652 10.8968 15.5196 10.7088 15.7071C10.5208 15.8946 10.2658 16 10 16ZM3.98585 4.18V1C3.98585 0.734784 3.88025 0.48043 3.69227 0.292893C3.50429 0.105357 3.24934 0 2.98349 0C2.71765 0 2.4627 0.105357 2.27472 0.292893C2.08674 0.48043 1.98114 0.734784 1.98114 1V4.18C1.40062 4.3902 0.899052 4.77363 0.544599 5.27817C0.190147 5.7827 0 6.38388 0 7C0 7.61612 0.190147 8.2173 0.544599 8.72184C0.899052 9.22637 1.40062 9.6098 1.98114 9.82V19C1.98114 19.2652 2.08674 19.5196 2.27472 19.7071C2.4627 19.8946 2.71765 20 2.98349 20C3.24934 20 3.50429 19.8946 3.69227 19.7071C3.88025 19.5196 3.98585 19.2652 3.98585 19V9.82C4.56637 9.6098 5.06794 9.22637 5.42239 8.72184C5.77684 8.2173 5.96699 7.61612 5.96699 7C5.96699 6.38388 5.77684 5.7827 5.42239 5.27817C5.06794 4.77363 4.56637 4.3902 3.98585 4.18ZM2.98349 8C2.78525 8 2.59145 7.94135 2.42661 7.83147C2.26178 7.72159 2.1333 7.56541 2.05744 7.38268C1.98157 7.19996 1.96172 6.99889 2.0004 6.80491C2.03907 6.61093 2.13454 6.43275 2.27472 6.29289C2.4149 6.15304 2.59351 6.0578 2.78794 6.01921C2.98238 5.98063 3.18392 6.00043 3.36708 6.07612C3.55024 6.15181 3.70678 6.27998 3.81692 6.44443C3.92707 6.60888 3.98585 6.80222 3.98585 7C3.98585 7.26522 3.88025 7.51957 3.69227 7.70711C3.50429 7.89464 3.24934 8 2.98349 8Z" fill="black"/>
</svg>
