<svg width="306" height="398" viewBox="0 0 306 398" fill="none" xmlns="http://www.w3.org/2000/svg">
<path d="M284.2 142.088L277.8 335.8C277.255 352.39 270.266 368.115 258.317 379.637C246.368 391.159 230.399 397.571 213.8 397.512H92.2C75.6116 397.571 59.6521 391.168 47.7047 379.66C35.7574 368.152 28.7614 352.443 28.2 335.864L21.8 142.088C21.66 137.845 23.2114 133.719 26.1129 130.62C29.0145 127.52 33.0285 125.7 37.272 125.56C41.5155 125.42 45.6408 126.971 48.7404 129.873C51.84 132.774 53.66 136.789 53.8 141.032L60.2 334.792C60.5187 343.064 64.0303 350.89 69.9973 356.627C75.9642 362.364 83.9223 365.566 92.2 365.56H213.8C222.088 365.566 230.056 362.355 236.024 356.604C241.993 350.853 245.497 343.011 245.8 334.728L252.2 141.032C252.34 136.789 254.16 132.774 257.26 129.873C260.359 126.971 264.485 125.42 268.728 125.56C272.971 125.7 276.985 127.52 279.887 130.62C282.789 133.719 284.34 137.845 284.2 142.088ZM305.368 77.624C305.368 81.8675 303.682 85.9371 300.682 88.9377C297.681 91.9383 293.611 93.624 289.368 93.624H16.648C12.4045 93.624 8.33487 91.9383 5.33429 88.9377C2.33371 85.9371 0.648003 81.8675 0.648003 77.624C0.648003 73.3805 2.33371 69.3109 5.33429 66.3103C8.33487 63.3097 12.4045 61.624 16.648 61.624H66.248C71.3176 61.6377 76.2109 59.7647 79.9757 56.3695C83.7405 52.9744 86.1075 48.3 86.616 43.256C87.7967 31.4238 93.3402 20.4549 102.166 12.4865C110.992 4.51814 122.469 0.121063 134.36 0.151999H171.64C183.531 0.121063 195.008 4.51814 203.834 12.4865C212.66 20.4549 218.203 31.4238 219.384 43.256C219.893 48.3 222.26 52.9744 226.024 56.3695C229.789 59.7647 234.682 61.6377 239.752 61.624H289.352C293.595 61.624 297.665 63.3097 300.666 66.3103C303.666 69.3109 305.352 73.3805 305.352 77.624H305.368ZM114.392 61.624H191.64C189.537 56.8199 188.162 51.7293 187.56 46.52C187.164 42.5761 185.317 38.9198 182.379 36.2594C179.441 33.599 175.62 32.1239 171.656 32.12H134.376C130.412 32.1239 126.591 33.599 123.653 36.2594C120.715 38.9198 118.868 42.5761 118.472 46.52C117.865 51.7302 116.5 56.8207 114.392 61.624ZM130.504 304.04V167.8C130.504 163.557 128.818 159.487 125.818 156.486C122.817 153.486 118.747 151.8 114.504 151.8C110.261 151.8 106.191 153.486 103.19 156.486C100.19 159.487 98.504 163.557 98.504 167.8V304.104C98.504 308.347 100.19 312.417 103.19 315.418C106.191 318.418 110.261 320.104 114.504 320.104C118.747 320.104 122.817 318.418 125.818 315.418C128.818 312.417 130.504 308.347 130.504 304.104V304.04ZM207.528 304.04V167.8C207.528 163.557 205.842 159.487 202.842 156.486C199.841 153.486 195.771 151.8 191.528 151.8C187.285 151.8 183.215 153.486 180.214 156.486C177.214 159.487 175.528 163.557 175.528 167.8V304.104C175.528 308.347 177.214 312.417 180.214 315.418C183.215 318.418 187.285 320.104 191.528 320.104C195.771 320.104 199.841 318.418 202.842 315.418C205.842 312.417 207.528 308.347 207.528 304.104V304.04Z" fill="black"/>
</svg>
